<svg width="36" height="36" viewBox="0 0 36 36" fill="none" xmlns="http://www.w3.org/2000/svg">
<path d="M2 26L15.5199 26C16.2799 26 16.7621 25.1858 16.3969 24.5194L15.3857 22.6745C15.1604 22.2633 15.251 21.7508 15.6036 21.4418L17.9038 19.4263C18.1791 19.1852 18.3006 18.8129 18.2207 18.4558L17.8178 16.6549C17.5942 15.6556 18.8388 15.006 19.5308 15.7609L21.9168 18.3638C22.2518 18.7293 22.2685 19.2851 21.9559 19.67L20.524 21.433C20.2613 21.7564 20.2267 22.2089 20.4372 22.5685L22.0854 25.3847C22.2648 25.6912 22.5933 25.8795 22.9484 25.8795H34" stroke="#1A1C20" stroke-width="1.8"/>
<path d="M7.94698 26.3553L10.8962 11.7632C10.9683 11.4068 11.2281 11.1176 11.5748 11.0079L20.8957 8.05937C21.2242 7.95544 21.5831 8.02798 21.8455 8.25133L29.2893 14.5879C29.5664 14.8238 29.6935 15.1916 29.6211 15.5483L27.4999 26" stroke="#1A1C20" stroke-width="1.8"/>
</svg>
