<svg width="24" height="24" viewBox="0 0 24 24" fill="none" xmlns="http://www.w3.org/2000/svg">
<path d="M1.3335 17.3334L10.3468 17.3334C10.8534 17.3334 11.1749 16.7906 10.9314 16.3463L10.2573 15.1164C10.1071 14.8423 10.1675 14.5006 10.4026 14.2946L11.9361 12.951C12.1195 12.7902 12.2006 12.542 12.1473 12.304L11.8787 11.1034C11.7296 10.4371 12.5594 10.0041 13.0207 10.5073L14.6114 12.2426C14.8347 12.4863 14.8458 12.8568 14.6374 13.1134L13.6828 14.2887C13.5077 14.5044 13.4846 14.806 13.625 15.0458L14.7237 16.9232C14.8433 17.1275 15.0623 17.2531 15.2991 17.2531H22.6668" stroke="currentColor" stroke-width="1.5"/>
<path d="M5.29782 17.5702L7.26398 7.84214C7.31201 7.60453 7.48523 7.41171 7.71637 7.33859L13.9303 5.37291C14.1493 5.30363 14.3886 5.35198 14.5635 5.50089L19.5129 9.71411C19.7045 9.87726 19.788 10.1344 19.7286 10.379L17.9998 17.5" stroke="currentColor" stroke-width="1.5"/>
</svg>
