<svg width="36" height="36" viewBox="0 0 36 36" fill="none" xmlns="http://www.w3.org/2000/svg">
<path d="M18 6C18.8571 9.22807 20.5714 11.8509 23.1429 13.8684C25.7143 15.886 27 18.1053 27 20.5263C27 22.7737 26.0518 24.929 24.364 26.5181C22.6761 28.1072 20.3869 29 18 29C15.6131 29 13.3239 28.1072 11.636 26.5181C9.94821 24.929 9 22.7737 9 20.5263C9 19.2167 9.45114 17.9424 10.2857 16.8947C10.2857 17.6974 10.6244 18.4671 11.2272 19.0347C11.83 19.6022 12.6475 19.9211 13.5 19.9211C14.3525 19.9211 15.17 19.6022 15.7728 19.0347C16.3756 18.4671 16.7143 17.6974 16.7143 16.8947C16.7143 14.4737 14.7857 13.2632 14.7857 10.8421C14.7857 9.22807 15.8571 7.61404 18 6Z" stroke="#1A1C20" stroke-width="1.8" stroke-linecap="round" stroke-linejoin="round"/>
</svg>
