<svg width="24" height="24" viewBox="0 0 24 24" fill="none" xmlns="http://www.w3.org/2000/svg">
<path d="M12 4C12.5714 6.15205 13.7143 7.90059 15.4286 9.24561C17.1429 10.5906 18 12.0702 18 13.6842C18 15.1825 17.3679 16.6193 16.2426 17.6787C15.1174 18.7382 13.5913 19.3333 12 19.3333C10.4087 19.3333 8.88258 18.7382 7.75736 17.6787C6.63214 16.6193 6 15.1825 6 13.6842C6 12.8111 6.30076 11.9616 6.85714 11.2632C6.85714 11.7982 7.08291 12.3114 7.48477 12.6898C7.88664 13.0681 8.43168 13.2807 9 13.2807C9.56832 13.2807 10.1134 13.0681 10.5152 12.6898C10.9171 12.3114 11.1429 11.7982 11.1429 11.2632C11.1429 9.64912 9.85714 8.84211 9.85714 7.22807C9.85714 6.15205 10.5714 5.07602 12 4Z" stroke="currentColor" stroke-width="1.5" stroke-linecap="round" stroke-linejoin="round"/>
</svg>
