<svg width="24" height="24" viewBox="0 0 24 24" fill="none" xmlns="http://www.w3.org/2000/svg">
<path d="M5.5074 6.57448C5.76239 7.135 7.00015 8.70264 9.03455 8.70264C10.2902 8.70264 11.2084 8.04824 12.0756 7.47019C12.8041 6.98453 13.8284 6.27594 15.0611 6.27593C16.2939 6.27592 17.4495 6.70744 18.6437 8.36581" stroke="currentColor" stroke-width="1.5"/>
<path d="M5.5074 10.8013C5.76239 11.3618 7.00015 12.9294 9.03455 12.9294C10.2902 12.9294 11.2084 12.275 12.0756 11.697C12.8041 11.2113 13.8284 10.5027 15.0611 10.5027C16.2939 10.5027 17.4495 10.9342 18.6437 12.5926" stroke="currentColor" stroke-width="1.5"/>
<path d="M5.5074 14.981C5.76239 15.5415 7.00015 17.1091 9.03455 17.1091C10.2902 17.1091 11.2084 16.4547 12.0756 15.8767C12.8041 15.391 13.8284 14.6824 15.0611 14.6824C16.2939 14.6824 17.4495 15.1139 18.6437 16.7723" stroke="currentColor" stroke-width="1.5"/>
</svg>
