<svg width="36" height="36" viewBox="0 0 36 36" fill="none" xmlns="http://www.w3.org/2000/svg">
<path d="M8.26134 9.86184C8.64383 10.7026 10.5005 13.0541 13.5521 13.0541C15.4355 13.0541 16.8129 12.0725 18.1136 11.2054C19.2064 10.4769 20.7428 9.41403 22.5919 9.41402C24.441 9.414 26.1745 10.0613 27.9658 12.5488" stroke="#1A1C20" stroke-width="1.8"/>
<path d="M8.26134 16.2019C8.64383 17.0427 10.5005 19.3942 13.5521 19.3942C15.4355 19.3942 16.8129 18.4126 18.1136 17.5455C19.2064 16.817 20.7428 15.7541 22.5919 15.7541C24.441 15.7541 26.1745 16.4014 27.9658 18.8889" stroke="#1A1C20" stroke-width="1.8"/>
<path d="M8.26134 22.4715C8.64383 23.3122 10.5005 25.6637 13.5521 25.6637C15.4355 25.6637 16.8129 24.6821 18.1136 23.815C19.2064 23.0865 20.7428 22.0236 22.5919 22.0236C24.441 22.0236 26.1745 22.6709 27.9658 25.1585" stroke="#1A1C20" stroke-width="1.8"/>
</svg>
