<svg width="36" height="36" viewBox="0 0 36 36" fill="none" xmlns="http://www.w3.org/2000/svg">
<path d="M18 27V11" stroke="currentColor" stroke-width="1.8" stroke-linecap="round" stroke-linejoin="round"/>
<path d="M7 21.6774V10C7 9.44772 7.44772 9 8 9H15.2143C15.4755 9 15.7262 9.10213 15.913 9.28455L17.3013 10.6403C17.6899 11.0197 18.3101 11.0197 18.6987 10.6403L20.087 9.28455C20.2738 9.10213 20.5246 9 20.7857 9H28C28.5523 9 29 9.44772 29 10V21.6774C29 23.8866 27.2091 25.6774 25 25.6774H22.7535C21.2308 25.6774 19.7685 26.273 18.6791 27.3369C18.3015 27.7056 17.6985 27.7056 17.3209 27.3369C16.2315 26.273 14.7692 25.6774 13.2465 25.6774H11C8.79086 25.6774 7 23.8866 7 21.6774Z" stroke="currentColor" stroke-width="1.8"/>
</svg>
