<svg width="24" height="24" viewBox="0 0 24 24" fill="none" xmlns="http://www.w3.org/2000/svg">
<path d="M12 17.9999V7.33325" stroke="#555D6D" stroke-width="1.5" stroke-linecap="round" stroke-linejoin="round"/>
<path d="M4.6665 14.4516V6.66667C4.6665 6.29848 4.96498 6 5.33317 6H10.1427C10.3168 6 10.484 6.06808 10.6085 6.1897L11.5341 7.09354C11.7931 7.34647 12.2066 7.34647 12.4656 7.09354L13.3912 6.1897C13.5157 6.06808 13.6829 6 13.8569 6H18.6665C19.0347 6 19.3332 6.29848 19.3332 6.66667V14.4516C19.3332 15.9244 18.1393 17.1183 16.6665 17.1183H15.1689C14.1537 17.1183 13.1788 17.5153 12.4526 18.2246C12.2008 18.4704 11.7989 18.4704 11.5471 18.2246C10.8208 17.5153 9.84596 17.1183 8.83081 17.1183H7.33317C5.86041 17.1183 4.6665 15.9244 4.6665 14.4516Z" stroke="#555D6D" stroke-width="1.5"/>
</svg>
