<svg width="24" height="24" viewBox="0 0 24 24" fill="none" xmlns="http://www.w3.org/2000/svg">
<path d="M7.05874 9.98692H8.88379C9.37832 9.98692 9.8368 9.72815 10.0924 9.30478L12.274 5.69096C12.7307 4.93443 13.7624 4.77871 14.422 5.36673L14.5839 5.51097C14.9787 5.86289 15.1436 6.40595 15.0113 6.91801L14.2184 9.98692H17.7529C18.7315 9.98692 19.4133 10.9584 19.0805 11.8788L17.0763 17.4213C16.8741 17.9805 16.3433 18.353 15.7487 18.353H7.05874C6.27904 18.353 5.64697 17.7209 5.64697 16.9412V11.3987C5.64697 10.619 6.27904 9.98692 7.05874 9.98692Z" stroke="#555D6D" stroke-width="1.5" stroke-linejoin="round"/>
<path d="M9.17627 10.0715L9.17627 18.542" stroke="#555D6D" stroke-width="1.5" stroke-linejoin="round"/>
</svg>
