<svg width="36" height="36" viewBox="0 0 36 36" fill="none" xmlns="http://www.w3.org/2000/svg">
<path d="M10.5884 14.9804H13.3259C14.0677 14.9804 14.7554 14.5922 15.1388 13.9572L18.4113 8.53644C19.0964 7.40165 20.6438 7.16807 21.6333 8.05009L21.876 8.26646C22.4682 8.79433 22.7157 9.60892 22.5173 10.377L21.3278 14.9804H26.6296C28.0975 14.9804 29.1202 16.4377 28.621 17.8181L25.6147 26.132C25.3114 26.9707 24.5151 27.5295 23.6233 27.5295H10.5884C9.41881 27.5295 8.4707 26.5814 8.4707 25.4119V17.098C8.4707 15.9285 9.41881 14.9804 10.5884 14.9804Z" stroke="#1A1C20" stroke-width="1.8" stroke-linejoin="round"/>
<path d="M13.7646 15.1073L13.7646 27.8132" stroke="#1A1C20" stroke-width="1.8" stroke-linejoin="round"/>
</svg>
