<svg width="17" height="17" viewBox="0 0 17 17" fill="none" xmlns="http://www.w3.org/2000/svg">
<path d="M5 7.07403H6.29274C6.64304 7.07403 6.9678 6.89073 7.14884 6.59085L8.69417 4.03106C9.01767 3.49518 9.7484 3.38488 10.2157 3.80139L10.3303 3.90357C10.6099 4.15284 10.7268 4.53751 10.6331 4.90021L10.0714 7.07403H12.575C13.2682 7.07403 13.7512 7.76219 13.5154 8.41408L12.0958 12.3401C11.9526 12.7361 11.5765 13 11.1554 13H5C4.44772 13 4 12.5523 4 12V8.07403C4 7.52174 4.44772 7.07403 5 7.07403Z" stroke="currentColor" stroke-linejoin="round"/>
<path d="M6.5 7.13397L6.5 13.134" stroke="currentColor" stroke-linejoin="round"/>
</svg>
