<svg width="24" height="24" viewBox="0 0 24 24" fill="none" xmlns="http://www.w3.org/2000/svg">
<path d="M3.3335 12.0001C4.2418 10.214 5.68045 8.74577 7.44068 7.80518" stroke="currentColor" stroke-width="1.5" stroke-linecap="round"/>
<path d="M3.33333 11.9999C4.94339 15.1659 8.21989 17.3333 12 17.3333C13.4258 17.3333 14.7799 17.0249 16 16.4709" stroke="currentColor" stroke-width="1.5" stroke-linecap="round"/>
<path d="M9.6665 9.61963C9.04938 10.2246 8.6665 11.0676 8.6665 12.0001C8.6665 13.8411 10.1589 15.3334 11.9998 15.3334C12.9323 15.3334 13.7753 14.9506 14.3803 14.3334" stroke="currentColor" stroke-width="1.5"/>
<line x1="5.19683" y1="4.80292" x2="19.1968" y2="18.8029" stroke="currentColor" stroke-width="1.5"/>
<path d="M20.6665 12.0001C19.0565 8.83415 15.78 6.66675 11.9999 6.66675C11.4461 6.66675 10.9031 6.71327 10.3745 6.80264" stroke="currentColor" stroke-width="1.5"/>
<path d="M21.335 12.34C21.5228 11.9708 21.3757 11.5192 21.0065 11.3315C20.6373 11.1437 20.1858 11.2908 19.998 11.66L20.6665 12L21.335 12.34ZM20.6665 12L19.998 11.66C19.4577 12.7223 18.7141 13.6632 17.8186 14.4305L18.3066 15L18.7946 15.5695C19.8382 14.6754 20.705 13.5788 21.335 12.34L20.6665 12Z" fill="currentColor"/>
</svg>
