<svg width="36" height="36" viewBox="0 0 36 36" fill="none" xmlns="http://www.w3.org/2000/svg">
<path d="M5 18.0001C6.36245 15.321 8.52043 13.1187 11.1608 11.7078" stroke="#1A1C20" stroke-width="1.8" stroke-linecap="round"/>
<path d="M5 18C7.41509 22.7489 12.3298 26 18 26C20.1387 26 22.1699 25.5375 24 24.7065" stroke="#1A1C20" stroke-width="1.8" stroke-linecap="round"/>
<path d="M14.5 14.4292C13.5743 15.3367 13 16.6012 13 17.9999C13 20.7613 15.2386 22.9999 18 22.9999C19.3987 22.9999 20.6633 22.4256 21.5707 21.4999" stroke="#1A1C20" stroke-width="1.8"/>
<line x1="7.6364" y1="7.3636" x2="28.6364" y2="28.3636" stroke="#1A1C20" stroke-width="1.8"/>
<path d="M31.0001 18C28.585 13.2511 23.6702 10 18.0001 10C17.1693 10 16.3548 10.0698 15.562 10.2038" stroke="#1A1C20" stroke-width="1.8"/>
<path d="M31.8022 18.408C32.0275 17.9649 31.851 17.4231 31.408 17.1978C30.9649 16.9725 30.4231 17.149 30.1978 17.592L31 18L31.8022 18.408ZM31 18L30.1978 17.592C29.3739 19.212 28.24 20.6467 26.8745 21.8166L27.4601 22.5L28.0457 23.1834C29.5889 21.8612 30.8706 20.2398 31.8022 18.408L31 18Z" fill="#1A1C20"/>
</svg>
