<svg width="24" height="24" viewBox="0 0 24 24" fill="none" xmlns="http://www.w3.org/2000/svg">
<circle cx="11.9997" cy="12.6667" r="2.66667" stroke="#555D6D" stroke-width="1.5"/>
<path d="M3.99967 8L7.43493 8C7.76082 8 8.03894 7.76439 8.09252 7.44293L8.24017 6.55707C8.29374 6.23561 8.57187 6 8.89776 6H15.1016C15.4275 6 15.7056 6.23561 15.7592 6.55707L15.9068 7.44293C15.9604 7.76439 16.2385 8 16.5644 8H19.9997C20.3679 8 20.6663 8.29848 20.6663 8.66667V15.6667C20.6663 17.1394 19.4724 18.3333 17.9997 18.3333H5.99968C4.52692 18.3333 3.33301 17.1394 3.33301 15.6667V8.66667C3.33301 8.29848 3.63148 8 3.99967 8Z" stroke="#555D6D" stroke-width="1.5"/>
</svg>
