<svg width="36" height="36" viewBox="0 0 36 36" fill="none" xmlns="http://www.w3.org/2000/svg">
<circle cx="18" cy="19" r="4" stroke="#1A1C20" stroke-width="1.8"/>
<path d="M6 12L11.1529 12C11.6417 12 12.0589 11.6466 12.1393 11.1644L12.3607 9.8356C12.4411 9.35341 12.8583 9 13.3471 9L22.6529 9C23.1417 9 23.5589 9.35342 23.6393 9.8356L23.8607 11.1644C23.9411 11.6466 24.3583 12 24.8471 12H30C30.5523 12 31 12.4477 31 13V23.5C31 25.7091 29.2091 27.5 27 27.5H9C6.79086 27.5 5 25.7091 5 23.5V13C5 12.4477 5.44771 12 6 12Z" stroke="#1A1C20" stroke-width="1.8"/>
</svg>
