<svg width="39" height="36" viewBox="0 0 39 36" fill="none" xmlns="http://www.w3.org/2000/svg">
<path d="M28 28.1689L22.6796 21.3826C22.4825 21.1312 22.228 20.9306 21.9374 20.7977L16.7192 18.4115C16.3458 18.2408 16.034 17.9592 15.8261 17.6051L12.3218 11.6349C12.1441 11.3322 11.8898 11.0816 11.5846 10.9082L7.98762 8.86556C6.65434 8.10842 5 9.07143 5 10.6047V28.1689" stroke="#1A1C20" stroke-width="1.8"/>
<path d="M14.9146 10.1301C15.5454 10.5995 16.3999 10.6325 17.065 10.2131C18.1953 9.50041 18.258 7.87512 17.1859 7.07745C16.5551 6.60811 15.7006 6.57515 15.0355 6.9945C13.9052 7.7072 13.8425 9.33248 14.9146 10.1301Z" stroke="#1A1C20" stroke-width="1.8"/>
<path d="M19.3784 15.7105C20.0092 16.1798 20.8637 16.2128 21.5288 15.7934C22.6591 15.0807 22.7218 13.4554 21.6498 12.6578C21.019 12.1884 20.1645 12.1555 19.4994 12.5748C18.3691 13.2875 18.3064 14.9128 19.3784 15.7105Z" stroke="#1A1C20" stroke-width="1.8"/>
<path d="M28.3071 22.4068C28.9379 22.8761 29.7925 22.9091 30.4575 22.4897C31.5879 21.777 31.6506 20.1517 30.5785 19.3541C29.9477 18.8847 29.0932 18.8518 28.4281 19.2711C27.2978 19.9838 27.2351 21.6091 28.3071 22.4068Z" stroke="#1A1C20" stroke-width="1.8"/>
</svg>
