<svg width="24" height="24" viewBox="0 0 24 24" fill="none" xmlns="http://www.w3.org/2000/svg">
<path d="M18.6668 18.7793L15.1199 14.2551C14.9885 14.0874 14.8188 13.9537 14.6251 13.8651L11.1463 12.2744C10.8974 12.1605 10.6895 11.9728 10.5509 11.7367L8.21468 7.75661C8.09622 7.55479 7.92672 7.3877 7.72322 7.27214L5.32525 5.91038C4.43639 5.40561 3.3335 6.04762 3.3335 7.0698V18.7793" stroke="currentColor" stroke-width="1.5"/>
<path d="M9.94304 6.75335C10.3636 7.06625 10.9333 7.08822 11.3766 6.80866C12.1302 6.33353 12.172 5.25 11.4573 4.71822C11.0368 4.40533 10.4671 4.38335 10.0237 4.66292C9.27014 5.13805 9.22835 6.22158 9.94304 6.75335Z" stroke="currentColor" stroke-width="1.5"/>
<path d="M12.9191 10.4736C13.3396 10.7865 13.9093 10.8084 14.3527 10.5289C15.1063 10.0537 15.1481 8.97021 14.4334 8.43844C14.0128 8.12554 13.4431 8.10357 12.9998 8.38314C12.2462 8.85827 12.2044 9.94179 12.9191 10.4736Z" stroke="currentColor" stroke-width="1.5"/>
<path d="M18.8713 14.9379C19.2918 15.2508 19.8615 15.2728 20.3049 14.9932C21.0584 14.5181 21.1002 13.4346 20.3855 12.9028C19.965 12.5899 19.3953 12.5679 18.9519 12.8475C18.1984 13.3226 18.1566 14.4061 18.8713 14.9379Z" stroke="currentColor" stroke-width="1.5"/>
</svg>
