<svg width="163" height="165" viewBox="0 0 163 165" fill="none" xmlns="http://www.w3.org/2000/svg">
<path d="M127.93 25.5364C128.561 25.8839 128.954 26.5478 128.954 27.2689V42.6398C128.954 43.7318 128.069 44.6171 126.977 44.6171H115.113C114.021 44.6171 113.136 43.7318 113.136 42.6398V36.6202C113.136 35.8991 112.744 35.2352 112.112 34.8877L82.4533 18.5759C81.8599 18.2496 81.1409 18.2496 80.5476 18.5759L50.8891 34.8877C50.2573 35.2352 49.8647 35.8991 49.8647 36.6202V42.6398C49.8647 43.7318 48.9795 44.6171 47.8875 44.6171H36.0241C34.9321 44.6171 34.0469 43.7318 34.0469 42.6398V27.2689C34.0469 26.5478 34.4394 25.8839 35.0712 25.5364L80.5475 0.524089C81.1409 0.197748 81.86 0.197748 82.4533 0.524089L127.93 25.5364Z" fill="#262734"/>
<path d="M47.8875 54.5029C48.9795 54.5029 49.8631 55.3868 49.9845 56.472C50.5136 61.2053 52.9653 69.5647 60.6043 77.7914C68.2098 85.9817 76.6489 90.0966 81.0431 91.6255C81.4126 91.7541 81.8072 91.761 82.1811 91.6463C86.7023 90.2595 94.7576 86.5991 102.217 77.9922C110.054 68.9491 112.478 60.9951 113.011 56.4716C113.139 55.3871 114.021 54.5029 115.113 54.5029H126.977C128.069 54.5029 128.959 55.3857 128.889 56.4755C128.374 64.499 124.687 76.2168 114.169 88.3534C102.538 101.774 89.386 106.467 83.0509 107.734L81.8471 107.975C81.5815 108.029 81.3078 108.027 81.0429 107.97L79.8437 107.712C73.7109 106.398 60.4452 100.868 49.0113 88.5542C38.2337 76.9473 34.6178 64.4859 34.1112 56.4749C34.0423 55.385 34.9321 54.5029 36.0241 54.5029H47.8875Z" fill="#D4182E"/>
<path d="M70.9298 42.5635C76.7678 36.7254 86.2331 36.7254 92.0711 42.5635C97.9092 48.4015 97.9092 57.8668 92.0712 63.7048L83.4224 72.3535C82.361 73.415 80.64 73.415 79.5786 72.3535L70.9298 63.7048C65.0918 57.8668 65.0918 48.4015 70.9298 42.5635Z" fill="#D4182E"/>
<path d="M18.6339 133.157C18.3588 130.523 16.0399 128.99 12.7777 128.99C9.27962 128.99 7.07861 130.759 7.07861 133.196C7.07861 135.908 10.0264 136.93 12.2667 137.48L15.018 138.227C18.6732 139.092 23.1931 141.096 23.2325 146.245C23.1931 151.04 19.3807 154.577 12.6597 154.577C6.29253 154.577 2.28355 151.394 2.00842 146.206H6.33184C6.60696 149.311 9.31892 150.804 12.6597 150.804C16.2757 150.804 18.909 148.957 18.9483 146.166C18.909 143.69 16.5901 142.668 13.5637 141.882L10.1836 140.978C5.62437 139.72 2.75519 137.401 2.75519 133.432C2.75519 128.519 7.15721 125.257 12.8956 125.257C18.6732 125.257 22.7215 128.558 22.8394 133.157H18.6339ZM26.534 148.092C26.534 143.218 30.6609 141.961 34.5126 141.686C35.9276 141.587 39.1308 141.41 40.1331 141.371L40.0938 139.681C40.0938 137.284 38.6395 135.869 35.7704 135.869C33.2942 135.869 31.8007 137.008 31.3683 138.581H27.2021C27.5952 135.043 30.8967 132.489 35.9276 132.489C39.3077 132.489 44.2993 133.746 44.2993 139.917V154.106H40.2117V151.197H40.0545C39.2291 152.809 37.2639 154.577 33.7266 154.577C29.6783 154.577 26.534 152.258 26.534 148.092ZM30.6216 148.131C30.6216 150.175 32.3116 151.236 34.6698 151.236C38.0893 151.236 40.1331 148.957 40.1331 146.402V144.437C39.1505 144.515 36.0848 144.732 35.1022 144.791C32.3509 144.987 30.6216 146.009 30.6216 148.131ZM59.5491 132.764V136.104H54.9506V154.106H50.7451V136.104H47.4436V132.764H50.7451V130.288C50.7451 126.475 53.1819 124.313 57.1123 124.313C58.1342 124.313 59.1561 124.431 59.9815 124.588V128.087C59.1954 127.969 58.6058 127.929 58.2128 127.929C55.9725 127.929 54.9506 128.833 54.9506 130.916V132.764H59.5491ZM71.694 154.538C65.4054 154.538 61.5536 150.215 61.5536 143.572C61.5536 137.008 65.484 132.489 71.4189 132.489C76.2925 132.489 80.8911 135.515 80.8911 143.218V144.712H65.7198C65.8377 148.76 68.2156 151.079 71.7333 151.079C74.1308 151.079 75.6637 150.057 76.3711 148.76H80.6159C79.6726 152.219 76.3711 154.538 71.694 154.538ZM65.7591 141.568H76.7642C76.7642 138.305 74.6811 135.947 71.4582 135.947C68.0977 135.947 65.9163 138.541 65.7591 141.568ZM85.411 125.65H90.6777L99.6783 147.699H100.032L109.033 125.65H114.299V154.106H110.172V133.55H109.897L101.565 154.066H98.1454L89.7737 133.51H89.5379V154.106H85.411V125.65ZM118.78 148.092C118.78 143.218 122.907 141.961 126.759 141.686C128.173 141.587 131.377 141.41 132.379 141.371L132.34 139.681C132.34 137.284 130.885 135.869 128.016 135.869C125.54 135.869 124.047 137.008 123.614 138.581H119.448C119.841 135.043 123.143 132.489 128.173 132.489C131.554 132.489 136.545 133.746 136.545 139.917V154.106H132.458V151.197H132.3C131.475 152.809 129.51 154.577 125.972 154.577C121.924 154.577 118.78 152.258 118.78 148.092ZM122.867 148.131C122.867 150.175 124.558 151.236 126.916 151.236C130.335 151.236 132.379 148.957 132.379 146.402V144.437C131.396 144.515 128.331 144.732 127.348 144.791C124.597 144.987 122.867 146.009 122.867 148.131ZM141.615 162.124V132.764H145.703V136.222H146.057C146.803 134.886 148.258 132.489 152.188 132.489C157.337 132.489 161.149 136.537 161.149 143.494C161.149 150.372 157.415 154.538 152.227 154.538C148.336 154.538 146.803 152.18 146.057 150.765H145.821V162.124H141.615ZM145.742 143.415C145.742 147.896 147.707 150.961 151.284 150.961C154.979 150.961 156.905 147.699 156.905 143.415C156.905 139.209 155.018 136.065 151.284 136.065C147.668 136.065 145.742 138.974 145.742 143.415Z" fill="#262734"/>
</svg>
