<svg width="130" height="36" viewBox="0 0 130 36" fill="none" xmlns="http://www.w3.org/2000/svg">
<path d="M31.9116 9.32279C32.0995 9.42486 32.2162 9.61986 32.2162 9.83165V14.3464C32.2162 14.6671 31.953 14.9271 31.6283 14.9271H28.1013C27.7767 14.9271 27.5135 14.6671 27.5135 14.3464V12.5783C27.5135 12.3665 27.3968 12.1715 27.2089 12.0695L18.3914 7.27836C18.215 7.18252 18.0012 7.18252 17.8248 7.27836L9.00725 12.0695C8.8194 12.1715 8.70269 12.3665 8.70269 12.5783V14.3464C8.70269 14.6671 8.43951 14.9271 8.11486 14.9271H4.58784C4.26318 14.9271 4 14.6671 4 14.3464V9.83165C4 9.61986 4.1167 9.42486 4.30454 9.32279L17.8248 1.97619C18.0012 1.88033 18.215 1.88033 18.3914 1.97619L31.9116 9.32279Z" fill="#262734"/>
<path d="M8.10211 18.1826C8.42718 18.1826 8.69022 18.4515 8.72634 18.7816C8.88387 20.2215 9.61368 22.7645 11.8877 25.2672C14.1517 27.7587 16.6639 29.0105 17.972 29.4757C18.082 29.5148 18.1995 29.5169 18.3108 29.482C19.6567 29.0601 22.0546 27.9466 24.2751 25.3283C26.6081 22.5773 27.3295 20.1576 27.4883 18.7815C27.5263 18.4516 27.7891 18.1826 28.1142 18.1826H31.6457C31.9708 18.1826 32.2358 18.4512 32.215 18.7827C32.0617 21.2235 30.9642 24.7882 27.8331 28.4802C24.3706 32.5629 20.4556 33.9905 18.5697 34.3759L18.2113 34.4494C18.1323 34.4656 18.0508 34.4651 17.9719 34.4478L17.615 34.3694C15.7893 33.9697 11.8403 32.2872 8.43664 28.5413C5.22833 25.0104 4.15194 21.2195 4.00112 18.7825C3.9806 18.451 4.24549 18.1826 4.57056 18.1826H8.10211Z" fill="#D4182E"/>
<path d="M14.9655 14.6007C16.7011 12.865 19.5152 12.865 21.2508 14.6007C22.9865 16.3364 22.9865 19.1504 21.2508 20.8861L18.6796 23.4574C18.364 23.7729 17.8523 23.7729 17.5368 23.4574L14.9655 20.8861C13.2298 19.1504 13.2298 16.3364 14.9655 14.6007Z" fill="#D4182E"/>
<path d="M51.0547 14.5488C50.9043 13.1094 49.6367 12.2715 47.8535 12.2715C45.9414 12.2715 44.7383 13.2383 44.7383 14.5703C44.7383 16.0527 46.3496 16.6113 47.5742 16.9121L49.0781 17.3203C51.0762 17.793 53.5469 18.8887 53.5684 21.7031C53.5469 24.3242 51.4629 26.2578 47.7891 26.2578C44.3086 26.2578 42.1172 24.5176 41.9668 21.6816H44.3301C44.4805 23.3789 45.9629 24.1953 47.7891 24.1953C49.7656 24.1953 51.2051 23.1855 51.2266 21.6602C51.2051 20.3066 49.9375 19.748 48.2832 19.3184L46.4355 18.8242C43.9434 18.1367 42.375 16.8691 42.375 14.6992C42.375 12.0137 44.7812 10.2305 47.918 10.2305C51.0762 10.2305 53.2891 12.0352 53.3535 14.5488H51.0547ZM55.373 22.7129C55.373 20.0488 57.6289 19.3613 59.7344 19.2109C60.5078 19.1572 62.2588 19.0605 62.8066 19.0391L62.7852 18.1152C62.7852 16.8047 61.9902 16.0312 60.4219 16.0312C59.0684 16.0312 58.252 16.6543 58.0156 17.5137H55.7383C55.9531 15.5801 57.7578 14.1836 60.5078 14.1836C62.3555 14.1836 65.084 14.8711 65.084 18.2441V26H62.8496V24.4102H62.7637C62.3125 25.291 61.2383 26.2578 59.3047 26.2578C57.0918 26.2578 55.373 24.9902 55.373 22.7129ZM57.6074 22.7344C57.6074 23.8516 58.5312 24.4316 59.8203 24.4316C61.6895 24.4316 62.8066 23.1855 62.8066 21.7891V20.7148L60.0566 20.9082C58.5527 21.0156 57.6074 21.5742 57.6074 22.7344ZM73.4199 14.334V16.1602H70.9062V26H68.6074V16.1602H66.8027V14.334H68.6074V12.9805C68.6074 10.8965 69.9395 9.71484 72.0879 9.71484C72.6465 9.71484 73.2051 9.7793 73.6562 9.86523V11.7773C73.2266 11.7129 72.9043 11.6914 72.6895 11.6914C71.4648 11.6914 70.9062 12.1855 70.9062 13.3242V14.334H73.4199ZM80.0586 26.2363C76.6211 26.2363 74.5156 23.873 74.5156 20.2422C74.5156 16.6543 76.6641 14.1836 79.9082 14.1836C82.5723 14.1836 85.0859 15.8379 85.0859 20.0488V20.8652H76.793C76.8574 23.0781 78.1572 24.3457 80.0801 24.3457C81.3906 24.3457 82.2285 23.7871 82.6152 23.0781H84.9355C84.4199 24.9688 82.6152 26.2363 80.0586 26.2363ZM76.8145 19.1465H82.8301C82.8301 17.3633 81.6914 16.0742 79.9297 16.0742C78.0928 16.0742 76.9004 17.4922 76.8145 19.1465ZM87.5566 10.4453H90.4355L95.3555 22.498H95.5488L100.469 10.4453H103.348V26H101.092V14.7637H100.941L96.3867 25.9785H94.5176L89.9414 14.7422H89.8125V26H87.5566V10.4453ZM105.797 22.7129C105.797 20.0488 108.053 19.3613 110.158 19.2109C110.932 19.1572 112.683 19.0605 113.23 19.0391L113.209 18.1152C113.209 16.8047 112.414 16.0312 110.846 16.0312C109.492 16.0312 108.676 16.6543 108.439 17.5137H106.162C106.377 15.5801 108.182 14.1836 110.932 14.1836C112.779 14.1836 115.508 14.8711 115.508 18.2441V26H113.273V24.4102H113.188C112.736 25.291 111.662 26.2578 109.729 26.2578C107.516 26.2578 105.797 24.9902 105.797 22.7129ZM108.031 22.7344C108.031 23.8516 108.955 24.4316 110.244 24.4316C112.113 24.4316 113.23 23.1855 113.23 21.7891V20.7148L110.48 20.9082C108.977 21.0156 108.031 21.5742 108.031 22.7344ZM118.279 30.3828V14.334H120.514V16.2246H120.707C121.115 15.4941 121.91 14.1836 124.059 14.1836C126.873 14.1836 128.957 16.3965 128.957 20.1992C128.957 23.959 126.916 26.2363 124.08 26.2363C121.953 26.2363 121.115 24.9473 120.707 24.1738H120.578V30.3828H118.279ZM120.535 20.1562C120.535 22.6055 121.609 24.2812 123.564 24.2812C125.584 24.2812 126.637 22.498 126.637 20.1562C126.637 17.8574 125.605 16.1387 123.564 16.1387C121.588 16.1387 120.535 17.7285 120.535 20.1562Z" fill="#1A1C20"/>
</svg>
