<svg width="157" height="36" viewBox="0 0 157 36" fill="none" xmlns="http://www.w3.org/2000/svg">
<path d="M30.8633 8.20299C31.071 8.31586 31.2 8.53148 31.2 8.76567V13.7578C31.2 14.1125 30.909 14.4 30.55 14.4H26.65C26.291 14.4 26 14.1125 26 13.7578V11.8028C26 11.5686 25.871 11.353 25.6632 11.2401L15.9132 5.94237C15.7182 5.83639 15.4818 5.83639 15.2868 5.94237L5.53676 11.2401C5.32905 11.353 5.2 11.5686 5.2 11.8028V13.7578C5.2 14.1125 4.90898 14.4 4.55 14.4H0.65C0.291015 14.4 0 14.1125 0 13.7578V8.76567C0 8.53148 0.129045 8.31586 0.336749 8.20299L15.2867 0.0794918C15.4818 -0.0264971 15.7182 -0.0264974 15.9132 0.0794915L30.8633 8.20299Z" fill="#262734"/>
<path d="M4.5359 18C4.89535 18 5.18621 18.2973 5.22615 18.6624C5.40033 20.2546 6.20732 23.0665 8.72183 25.8338C11.2253 28.5888 14.0031 29.973 15.4495 30.4873C15.5712 30.5305 15.701 30.5329 15.8241 30.4943C17.3123 30.0278 19.9639 28.7965 22.4192 25.9013C24.9989 22.8594 25.7966 20.1839 25.9721 18.6622C26.0142 18.2974 26.3048 18 26.6642 18H30.5692C30.9287 18 31.2218 18.297 31.1987 18.6635C31.0292 21.3625 29.8157 25.3041 26.3534 29.3866C22.5247 33.901 18.1957 35.4795 16.1104 35.9057L15.7142 35.987C15.6267 36.005 15.5366 36.0043 15.4495 35.9852L15.0547 35.8986C13.036 35.4565 8.66945 33.5961 4.90581 29.4542C1.35822 25.5498 0.168007 21.3581 0.00123506 18.6633C-0.0214526 18.2968 0.271455 18 0.630901 18H4.5359Z" fill="#D4182E"/>
<path d="M12.1251 14.0385C14.0443 12.1193 17.1559 12.1193 19.0751 14.0385C20.9943 15.9577 20.9943 19.0693 19.0751 20.9885L16.2319 23.8317C15.883 24.1807 15.3172 24.1807 14.9683 23.8317L12.1251 20.9885C10.2059 19.0693 10.2059 15.9577 12.1251 14.0385Z" fill="#D4182E"/>
<path d="M52.9115 13.5094C52.7146 11.625 51.0553 10.5281 48.7209 10.5281C46.2178 10.5281 44.6428 11.7938 44.6428 13.5375C44.6428 15.4781 46.7521 16.2094 48.3553 16.6031L50.324 17.1375C52.9396 17.7563 56.174 19.1906 56.2021 22.875C56.174 26.3063 53.4459 28.8375 48.6365 28.8375C44.0803 28.8375 41.2115 26.5594 41.0146 22.8469H44.1084C44.3053 25.0688 46.2459 26.1375 48.6365 26.1375C51.224 26.1375 53.1084 24.8156 53.1365 22.8188C53.1084 21.0469 51.449 20.3156 49.2834 19.7531L46.8646 19.1063C43.6021 18.2063 41.549 16.5469 41.549 13.7063C41.549 10.1906 44.699 7.85627 48.8053 7.85627C52.9396 7.85627 55.8365 10.2188 55.9209 13.5094H52.9115ZM58.5646 24.1969C58.5646 20.7094 61.5178 19.8094 64.274 19.6125C65.2865 19.5422 67.5787 19.4156 68.2959 19.3875L68.2678 18.1781C68.2678 16.4625 67.2271 15.45 65.174 15.45C63.4021 15.45 62.3334 16.2656 62.024 17.3906H59.0428C59.324 14.8594 61.6865 13.0313 65.2865 13.0313C67.7053 13.0313 71.2771 13.9313 71.2771 18.3469V28.5H68.3521V26.4188H68.2396C67.649 27.5719 66.2428 28.8375 63.7115 28.8375C60.8146 28.8375 58.5646 27.1781 58.5646 24.1969ZM61.4896 24.225C61.4896 25.6875 62.699 26.4469 64.3865 26.4469C66.8334 26.4469 68.2959 24.8156 68.2959 22.9875V21.5813L64.6959 21.8344C62.7271 21.975 61.4896 22.7063 61.4896 24.225ZM82.1896 13.2281V15.6188H78.899V28.5H75.8896V15.6188H73.5271V13.2281H75.8896V11.4563C75.8896 8.72814 77.6334 7.18127 80.4459 7.18127C81.1771 7.18127 81.9084 7.26564 82.499 7.37814V9.88127C81.9365 9.79689 81.5146 9.76877 81.2334 9.76877C79.6303 9.76877 78.899 10.4156 78.899 11.9063V13.2281H82.1896ZM90.8803 28.8094C86.3803 28.8094 83.624 25.7156 83.624 20.9625C83.624 16.2656 86.4365 13.0313 90.6834 13.0313C94.1709 13.0313 97.4615 15.1969 97.4615 20.7094V21.7781H86.6053C86.6896 24.675 88.3912 26.3344 90.9084 26.3344C92.624 26.3344 93.7209 25.6031 94.2271 24.675H97.2646C96.5896 27.15 94.2271 28.8094 90.8803 28.8094ZM86.6334 19.5281H94.5084C94.5084 17.1938 93.0178 15.5063 90.7115 15.5063C88.3068 15.5063 86.7459 17.3625 86.6334 19.5281ZM100.696 8.13752H104.465L110.905 23.9156H111.158L117.599 8.13752H121.368V28.5H118.415V13.7906H118.218L112.255 28.4719H109.808L103.818 13.7625H103.649V28.5H100.696V8.13752ZM124.574 24.1969C124.574 20.7094 127.527 19.8094 130.283 19.6125C131.296 19.5422 133.588 19.4156 134.305 19.3875L134.277 18.1781C134.277 16.4625 133.237 15.45 131.183 15.45C129.412 15.45 128.343 16.2656 128.033 17.3906H125.052C125.333 14.8594 127.696 13.0313 131.296 13.0313C133.715 13.0313 137.287 13.9313 137.287 18.3469V28.5H134.362V26.4188H134.249C133.658 27.5719 132.252 28.8375 129.721 28.8375C126.824 28.8375 124.574 27.1781 124.574 24.1969ZM127.499 24.225C127.499 25.6875 128.708 26.4469 130.396 26.4469C132.843 26.4469 134.305 24.8156 134.305 22.9875V21.5813L130.705 21.8344C128.737 21.975 127.499 22.7063 127.499 24.225ZM140.915 34.2375V13.2281H143.84V15.7031H144.093C144.627 14.7469 145.668 13.0313 148.48 13.0313C152.165 13.0313 154.893 15.9281 154.893 20.9063C154.893 25.8281 152.221 28.8094 148.508 28.8094C145.724 28.8094 144.627 27.1219 144.093 26.1094H143.924V34.2375H140.915ZM143.868 20.85C143.868 24.0563 145.274 26.25 147.833 26.25C150.477 26.25 151.855 23.9156 151.855 20.85C151.855 17.8406 150.505 15.5906 147.833 15.5906C145.246 15.5906 143.868 17.6719 143.868 20.85Z" fill="#262734"/>
</svg>
