<svg width="129" height="129" viewBox="0 0 129 129" fill="none" xmlns="http://www.w3.org/2000/svg">
<path d="M78.0234 13L78.0236 10.6257H78.0234V13ZM83.7217 18.6982H86.096V18.6982L83.7217 18.6982ZM83.7217 45.7979H81.3474C81.3474 47.1091 82.4104 48.1722 83.7217 48.1722V45.7979ZM110.821 45.7979L110.821 43.4235H110.821V45.7979ZM116.52 51.4971H114.145V51.4971H116.52ZM116.52 78.0234L118.894 78.0236V78.0234H116.52ZM110.821 83.7217V86.096H110.821L110.821 83.7217ZM83.7217 83.7217V81.3474C82.4104 81.3474 81.3474 82.4104 81.3474 83.7217H83.7217ZM83.7217 110.821L86.096 110.821V110.821H83.7217ZM78.0234 116.52V118.894H78.0236L78.0234 116.52ZM51.4971 116.52V118.894V118.894V116.52ZM45.7979 110.821H43.4235V110.821L45.7979 110.821ZM45.7979 83.7217H48.1722C48.1722 82.4104 47.1091 81.3474 45.7979 81.3474V83.7217ZM18.6982 83.7217L18.6982 86.096H18.6982V83.7217ZM13 78.0234H10.6257V78.0236L13 78.0234ZM13 51.4971H10.6257V51.4971H13ZM18.6982 45.7979V43.4235H18.6982L18.6982 45.7979ZM45.7979 45.7979V48.1722C47.1091 48.1722 48.1722 47.1091 48.1722 45.7979H45.7979ZM45.7979 18.6982L43.4235 18.6982V18.6982H45.7979ZM51.4971 13V15.3743V15.3743V13ZM78.0234 13L78.0232 15.3743C79.8591 15.3744 81.3474 16.8628 81.3474 18.6983L83.7217 18.6982L86.096 18.6982C86.0959 14.2399 82.4815 10.6261 78.0236 10.6257L78.0234 13ZM83.7217 18.6982H81.3474V45.7979H83.7217H86.096V18.6982H83.7217ZM83.7217 45.7979V48.1722H110.821V45.7979V43.4235H83.7217V45.7979ZM110.821 45.7979L110.821 48.1722C112.657 48.1722 114.145 49.6608 114.145 51.4971H116.52H118.894C118.894 47.0392 115.28 43.4236 110.821 43.4235L110.821 45.7979ZM116.52 51.4971H114.145V78.0234H116.52H118.894V51.4971H116.52ZM116.52 78.0234L114.145 78.0233C114.145 79.8591 112.657 81.3474 110.821 81.3474L110.821 83.7217L110.821 86.096C115.28 86.0959 118.894 82.4815 118.894 78.0236L116.52 78.0234ZM110.821 83.7217V81.3474H83.7217V83.7217V86.096H110.821V83.7217ZM83.7217 83.7217H81.3474V110.821H83.7217H86.096V83.7217H83.7217ZM83.7217 110.821L81.3474 110.821C81.3474 112.657 79.8591 114.145 78.0232 114.145L78.0234 116.52L78.0236 118.894C82.4815 118.893 86.0959 115.28 86.096 110.821L83.7217 110.821ZM78.0234 116.52V114.145H51.4971V116.52V118.894H78.0234V116.52ZM51.4971 116.52V114.145C49.6608 114.145 48.1722 112.657 48.1722 110.821L45.7979 110.821L43.4235 110.821C43.4236 115.28 47.0392 118.894 51.4971 118.894V116.52ZM45.7979 110.821H48.1722V83.7217H45.7979H43.4235V110.821H45.7979ZM45.7979 83.7217V81.3474H18.6982V83.7217V86.096H45.7979V83.7217ZM18.6982 83.7217L18.6983 81.3474C16.8628 81.3474 15.3744 79.8591 15.3743 78.0233L13 78.0234L10.6257 78.0236C10.626 82.4815 14.2399 86.0959 18.6982 86.096L18.6982 83.7217ZM13 78.0234H15.3743V51.4971H13H10.6257V78.0234H13ZM13 51.4971H15.3743C15.3743 49.6608 16.863 48.1722 18.6983 48.1722L18.6982 45.7979L18.6982 43.4235C14.2394 43.4236 10.6257 47.0392 10.6257 51.4971H13ZM18.6982 45.7979V48.1722H45.7979V45.7979V43.4235H18.6982V45.7979ZM45.7979 45.7979H48.1722V18.6982H45.7979H43.4235V45.7979H45.7979ZM45.7979 18.6982L48.1722 18.6983C48.1722 16.863 49.6608 15.3743 51.4971 15.3743V13V10.6257C47.0392 10.6257 43.4236 14.2394 43.4235 18.6982L45.7979 18.6982ZM51.4971 13V15.3743H78.0234V13V10.6257H51.4971V13Z" fill="#D1D3D8"/>
</svg>
