<svg width="39" height="36" viewBox="0 0 39 36" fill="none" xmlns="http://www.w3.org/2000/svg">
<circle cx="18.5" cy="18.5" r="4.5" stroke="#1A1C20" stroke-width="1.8"/>
<path d="M20.5614 7.86604L21.4533 7.74547L20.5614 7.86604ZM16.4384 7.86575L15.5465 7.74493L16.4384 7.86575ZM16.1896 9.70208L15.2977 9.58126L16.1896 9.70208ZM15.0079 10.749L15.3772 11.5698L15.0079 10.749ZM12.4383 9.5229L11.8929 10.2388L12.4383 9.5229ZM10.6446 13.9103L9.92872 14.4558L10.6446 13.9103ZM10.5507 15.4878L9.70878 15.1697L10.5507 15.4878ZM7.86575 16.4384L7.98658 17.3302L7.86575 16.4384ZM7.86604 20.5614L7.74547 21.4533L7.86604 20.5614ZM10.5508 21.5115L11.3927 21.1934L10.5508 21.5115ZM9.61108 25.8747L10.2475 25.2384L9.61108 25.8747ZM9.52268 24.5617L10.2386 25.107L9.52268 24.5617ZM12.4384 27.4768L11.8927 26.7611L12.4384 27.4768ZM15.0081 26.2501L15.3773 25.4293L15.0081 26.2501ZM13.9103 26.3547L13.3646 25.639L13.9103 26.3547ZM16.1896 27.2969L15.2977 27.4177L16.1896 27.2969ZM15.4878 26.4483L15.1697 27.2903L15.4878 26.4483ZM16.4384 29.1342L17.3303 29.0134V29.0134L16.4384 29.1342ZM20.5614 29.1339L21.4533 29.2545L20.5614 29.1339ZM20.8096 27.2973L19.9177 27.1767L20.8096 27.2973ZM23.0887 26.3545L22.5431 27.0703L23.0887 26.3545ZM24.5616 27.477L24.0161 28.1929L24.5616 27.477ZM27.477 24.5616L28.1929 24.0161L27.477 24.5616ZM26.25 21.9911L25.4293 21.6218L26.25 21.9911ZM26.3545 23.0887L27.0703 22.5431L26.3545 23.0887ZM27.2973 20.8096L27.1767 19.9177L27.2973 20.8096ZM26.4483 21.5115L25.6064 21.1934L26.4483 21.5115ZM29.1339 20.5614L29.0134 19.6695L29.1339 20.5614ZM29.1342 16.4384L29.0134 17.3303V17.3303L29.1342 16.4384ZM26.4483 15.4878L25.6064 15.8058V15.8058L26.4483 15.4878ZM27.2969 16.1896L27.4177 15.2977L27.2969 16.1896ZM26.3547 13.9103L27.0704 14.4559L26.3547 13.9103ZM26.2501 15.0081L25.4293 15.3773L26.2501 15.0081ZM27.3887 11.125L26.7523 11.7614L27.3887 11.125ZM27.4768 12.4384L28.1925 12.984L27.4768 12.4384ZM24.5617 9.52268L25.107 10.2386L24.5617 9.52268ZM25.8747 9.61107L26.5111 8.97468L25.8747 9.61107ZM23.0886 10.6448L22.5432 9.92884L23.0886 10.6448ZM21.5115 10.5508L21.1934 11.3927V11.3927L21.5115 10.5508ZM20.8096 9.70178L19.9177 9.82235L20.8096 9.70178ZM21.5115 10.5508L21.1934 11.3927C21.3385 11.4475 21.4814 11.5066 21.622 11.5698L21.9913 10.7491L22.3606 9.92835C22.1863 9.84994 22.0093 9.77674 21.8297 9.70888L21.5115 10.5508ZM23.0886 10.6448L23.634 11.3607L25.107 10.2386L24.5617 9.52268L24.0163 8.80674L22.5432 9.92884L23.0886 10.6448ZM25.8747 9.61107L25.2383 10.2475L26.7523 11.7614L27.3887 11.125L28.0251 10.4886L26.5111 8.97468L25.8747 9.61107ZM27.4768 12.4384L26.7611 11.8927L25.639 13.3646L26.3547 13.9103L27.0704 14.4559L28.1925 12.984L27.4768 12.4384ZM26.2501 15.0081L25.4293 15.3773C25.4925 15.5178 25.5516 15.6607 25.6064 15.8058L26.4483 15.4878L27.2903 15.1697C27.2224 14.9902 27.1493 14.8132 27.0709 14.6389L26.2501 15.0081ZM27.2969 16.1896L27.1762 17.0814L29.0134 17.3303L29.1342 16.4384L29.255 15.5465L27.4177 15.2977L27.2969 16.1896ZM30 17.4294H29.1V19.5704H30H30.9V17.4294H30ZM29.1339 20.5614L29.0134 19.6695L27.1767 19.9177L27.2973 20.8096L27.4178 21.7015L29.2545 21.4533L29.1339 20.5614ZM26.4483 21.5115L25.6064 21.1934C25.5515 21.3385 25.4925 21.4813 25.4293 21.6218L26.25 21.9911L27.0708 22.3604C27.1492 22.1861 27.2223 22.0092 27.2902 21.8297L26.4483 21.5115ZM26.3545 23.0887L25.6387 23.6342L26.7612 25.1072L27.477 24.5616L28.1929 24.0161L27.0703 22.5431L26.3545 23.0887ZM27.3888 25.8749L26.7524 25.2385L25.2385 26.7524L25.8749 27.3888L26.5113 28.0252L28.0252 26.5113L27.3888 25.8749ZM24.5616 27.477L25.1072 26.7612L23.6342 25.6387L23.0887 26.3545L22.5431 27.0703L24.0161 28.1929L24.5616 27.477ZM21.9911 26.25L21.6218 25.4293C21.4813 25.4925 21.3385 25.5515 21.1934 25.6064L21.5115 26.4483L21.8297 27.2902C22.0092 27.2223 22.1861 27.1492 22.3604 27.0708L21.9911 26.25ZM20.8096 27.2973L19.9177 27.1767L19.6695 29.0134L20.5614 29.1339L21.4533 29.2545L21.7015 27.4178L20.8096 27.2973ZM19.5704 30V29.1H17.4294V30V30.9H19.5704V30ZM16.4384 29.1342L17.3303 29.0134L17.0814 27.1762L16.1896 27.2969L15.2977 27.4177L15.5465 29.255L16.4384 29.1342ZM15.4878 26.4483L15.8058 25.6064C15.6607 25.5516 15.5178 25.4925 15.3773 25.4293L15.0081 26.2501L14.6389 27.0709C14.8132 27.1493 14.9902 27.2224 15.1697 27.2903L15.4878 26.4483ZM13.9103 26.3547L13.3646 25.639L11.8927 26.7611L12.4384 27.4768L12.984 28.1925L14.4559 27.0704L13.9103 26.3547ZM11.125 27.3887L11.7614 26.7523L10.2475 25.2384L9.61108 25.8747L8.97468 26.5111L10.4886 28.0251L11.125 27.3887ZM9.52268 24.5617L10.2386 25.107L11.3607 23.634L10.6448 23.0886L9.92884 22.5432L8.80673 24.0163L9.52268 24.5617ZM10.7491 21.9913L11.5698 21.622C11.5066 21.4814 11.4475 21.3385 11.3927 21.1934L10.5508 21.5115L9.70888 21.8297C9.77674 22.0093 9.84994 22.1863 9.92835 22.3606L10.7491 21.9913ZM9.70178 20.8096L9.82235 19.9177L7.9866 19.6695L7.86604 20.5614L7.74547 21.4533L9.58121 21.7015L9.70178 20.8096ZM7 19.5704H7.9V17.4293H7H6.1V19.5704H7ZM7.86575 16.4384L7.98658 17.3302L9.82291 17.0815L9.70209 16.1896L9.58126 15.2977L7.74493 15.5465L7.86575 16.4384ZM10.5507 15.4878L11.3926 15.8059C11.4474 15.6607 11.5065 15.5177 11.5698 15.3772L10.749 15.0079L9.92824 14.6387C9.84982 14.813 9.77663 14.9901 9.70878 15.1697L10.5507 15.4878ZM10.6446 13.9103L11.3604 13.3649L10.2388 11.8929L9.5229 12.4383L8.80705 12.9838L9.92872 14.4558L10.6446 13.9103ZM9.61118 11.1251L10.2476 11.7615L11.7615 10.2476L11.1251 9.61118L10.4887 8.97479L8.97479 10.4887L9.61118 11.1251ZM12.4383 9.5229L11.8929 10.2388L13.3649 11.3604L13.9103 10.6446L14.4558 9.92872L12.9838 8.80705L12.4383 9.5229ZM15.0079 10.749L15.3772 11.5698C15.5177 11.5065 15.6607 11.4474 15.8059 11.3926L15.4878 10.5507L15.1697 9.70878C14.9901 9.77663 14.813 9.84982 14.6387 9.92824L15.0079 10.749ZM16.1896 9.70208L17.0815 9.82291L17.3302 7.98657L16.4384 7.86575L15.5465 7.74493L15.2977 9.58126L16.1896 9.70208ZM17.4293 7V7.9H19.5704V7V6.1H17.4293V7ZM20.5614 7.86604L19.6695 7.9866L19.9177 9.82235L20.8096 9.70178L21.7015 9.58121L21.4533 7.74547L20.5614 7.86604ZM19.5704 7V7.9C19.6205 7.9 19.6628 7.937 19.6695 7.9866L20.5614 7.86604L21.4533 7.74547C21.3259 6.80307 20.5214 6.1 19.5704 6.1V7ZM16.4384 7.86575L17.3302 7.98657C17.3369 7.93699 17.3793 7.9 17.4293 7.9V7V6.1C16.4786 6.1 15.6742 6.80277 15.5465 7.74493L16.4384 7.86575ZM15.4878 10.5507L15.8059 11.3926C16.4475 11.1502 16.9791 10.5783 17.0815 9.82291L16.1896 9.70208L15.2977 9.58126C15.2942 9.60776 15.2661 9.67235 15.1697 9.70878L15.4878 10.5507ZM13.9103 10.6446L13.3649 11.3604C13.9718 11.8229 14.7524 11.8509 15.3772 11.5698L15.0079 10.749L14.6387 9.92824C14.5433 9.97118 14.477 9.94488 14.4558 9.92872L13.9103 10.6446ZM11.1251 9.61118L11.7615 10.2476C11.7969 10.2122 11.853 10.2084 11.8929 10.2388L12.4383 9.5229L12.9838 8.80705C12.2274 8.23062 11.1612 8.30229 10.4887 8.97479L11.1251 9.61118ZM9.5229 12.4383L10.2388 11.8929C10.2084 11.853 10.2122 11.7969 10.2476 11.7615L9.61118 11.1251L8.97479 10.4887C8.30229 11.1612 8.23062 12.2274 8.80705 12.9838L9.5229 12.4383ZM10.749 15.0079L11.5698 15.3772C11.8509 14.7524 11.8229 13.9718 11.3604 13.3649L10.6446 13.9103L9.92872 14.4558C9.94488 14.477 9.97118 14.5433 9.92824 14.6387L10.749 15.0079ZM9.70209 16.1896L9.82291 17.0815C10.5783 16.9791 11.1502 16.4475 11.3926 15.8059L10.5507 15.4878L9.70878 15.1697C9.67235 15.2661 9.60776 15.2942 9.58126 15.2977L9.70209 16.1896ZM7 17.4293H7.9C7.9 17.3793 7.93699 17.3369 7.98658 17.3302L7.86575 16.4384L7.74493 15.5465C6.80277 15.6742 6.1 16.4786 6.1 17.4293H7ZM7.86604 20.5614L7.9866 19.6695C7.937 19.6628 7.9 19.6205 7.9 19.5704H7H6.1C6.1 20.5214 6.80307 21.3259 7.74547 21.4533L7.86604 20.5614ZM10.5508 21.5115L11.3927 21.1934C11.1501 20.5516 10.578 20.0198 9.82235 19.9177L9.70178 20.8096L9.58121 21.7015C9.60771 21.705 9.67239 21.7331 9.70888 21.8297L10.5508 21.5115ZM10.6448 23.0886L11.3607 23.634C11.823 23.0271 11.8509 22.2467 11.5698 21.622L10.7491 21.9913L9.92835 22.3606C9.97124 22.4559 9.94499 22.522 9.92884 22.5432L10.6448 23.0886ZM9.61108 25.8747L10.2475 25.2384C10.2121 25.203 10.2083 25.1469 10.2386 25.107L9.52268 24.5617L8.80673 24.0163C8.23051 24.7728 8.30227 25.8387 8.97468 26.5111L9.61108 25.8747ZM12.4384 27.4768L11.8927 26.7611C11.8529 26.7914 11.7968 26.7877 11.7614 26.7523L11.125 27.3887L10.4886 28.0251C11.1612 28.6977 12.2276 28.7692 12.984 28.1925L12.4384 27.4768ZM15.0081 26.2501L15.3773 25.4293C14.7524 25.1482 13.9716 25.1762 13.3646 25.639L13.9103 26.3547L14.4559 27.0704C14.4771 27.0543 14.5434 27.0279 14.6389 27.0709L15.0081 26.2501ZM16.1896 27.2969L17.0814 27.1762C16.9791 26.4208 16.4475 25.8488 15.8058 25.6064L15.4878 26.4483L15.1697 27.2903C15.2661 27.3267 15.2941 27.3912 15.2977 27.4177L16.1896 27.2969ZM17.4294 30V29.1C17.3793 29.1 17.337 29.063 17.3303 29.0134L16.4384 29.1342L15.5465 29.255C15.6742 30.1972 16.4786 30.9 17.4294 30.9V30ZM20.5614 29.1339L19.6695 29.0134C19.6628 29.063 19.6204 29.1 19.5704 29.1V30V30.9C20.5214 30.9 21.3259 30.1969 21.4533 29.2545L20.5614 29.1339ZM21.5115 26.4483L21.1934 25.6064C20.5516 25.8489 20.0198 26.421 19.9177 27.1767L20.8096 27.2973L21.7015 27.4178C21.7051 27.3913 21.7331 27.3266 21.8297 27.2902L21.5115 26.4483ZM23.0887 26.3545L23.6342 25.6387C23.0272 25.1761 22.2467 25.1481 21.6218 25.4293L21.9911 26.25L22.3604 27.0708C22.4557 27.0279 22.5219 27.0541 22.5431 27.0703L23.0887 26.3545ZM25.8749 27.3888L25.2385 26.7524C25.2031 26.7878 25.147 26.7916 25.1072 26.7612L24.5616 27.477L24.0161 28.1929C24.7726 28.7694 25.8388 28.6977 26.5113 28.0252L25.8749 27.3888ZM27.477 24.5616L26.7612 25.1072C26.7916 25.147 26.7878 25.2031 26.7524 25.2385L27.3888 25.8749L28.0252 26.5113C28.6977 25.8388 28.7694 24.7726 28.1929 24.0161L27.477 24.5616ZM26.25 21.9911L25.4293 21.6218C25.1481 22.2467 25.1761 23.0273 25.6387 23.6342L26.3545 23.0887L27.0703 22.5431C27.0541 22.5219 27.0279 22.4557 27.0708 22.3604L26.25 21.9911ZM27.2973 20.8096L27.1767 19.9177C26.421 20.0198 25.8489 20.5516 25.6064 21.1934L26.4483 21.5115L27.2902 21.8297C27.3266 21.7331 27.3913 21.7051 27.4178 21.7015L27.2973 20.8096ZM30 19.5704H29.1C29.1 19.6204 29.063 19.6628 29.0134 19.6695L29.1339 20.5614L29.2545 21.4533C30.1969 21.3259 30.9 20.5214 30.9 19.5704H30ZM29.1342 16.4384L29.0134 17.3303C29.063 17.337 29.1 17.3793 29.1 17.4294H30H30.9C30.9 16.4786 30.1972 15.6742 29.255 15.5465L29.1342 16.4384ZM26.4483 15.4878L25.6064 15.8058C25.8488 16.4475 26.4208 16.9791 27.1762 17.0814L27.2969 16.1896L27.4177 15.2977C27.3912 15.2941 27.3267 15.2661 27.2903 15.1697L26.4483 15.4878ZM26.3547 13.9103L25.639 13.3646C25.1762 13.9716 25.1482 14.7524 25.4293 15.3773L26.2501 15.0081L27.0709 14.6389C27.0279 14.5434 27.0543 14.4771 27.0704 14.4559L26.3547 13.9103ZM27.3887 11.125L26.7523 11.7614C26.7877 11.7968 26.7914 11.8529 26.7611 11.8927L27.4768 12.4384L28.1925 12.984C28.7692 12.2276 28.6977 11.1612 28.0251 10.4886L27.3887 11.125ZM24.5617 9.52268L25.107 10.2386C25.1469 10.2083 25.203 10.2121 25.2383 10.2475L25.8747 9.61107L26.5111 8.97468C25.8387 8.30227 24.7728 8.23052 24.0163 8.80674L24.5617 9.52268ZM21.9913 10.7491L21.622 11.5698C22.2467 11.8509 23.0271 11.823 23.634 11.3607L23.0886 10.6448L22.5432 9.92884C22.522 9.94499 22.4559 9.97124 22.3606 9.92835L21.9913 10.7491ZM21.5115 10.5508L21.8297 9.70888C21.7331 9.67239 21.705 9.60771 21.7015 9.58121L20.8096 9.70178L19.9177 9.82235C20.0198 10.578 20.5516 11.1501 21.1934 11.3927L21.5115 10.5508Z" fill="#1A1C20"/>
</svg>
