<svg width="24" height="24" viewBox="0 0 24 24" fill="none" xmlns="http://www.w3.org/2000/svg">
<circle cx="12.3335" cy="12.3333" r="3" stroke="currentColor" stroke-width="1.5"/>
<path d="M13.7073 5.24428L12.964 5.34456L13.7073 5.24428ZM10.3249 7.0335L10.06 6.33183L10.3249 7.0335ZM10.7929 6.46773L11.5361 6.56833L10.7929 6.46773ZM9.27347 7.09605L8.8191 7.69275L9.27347 7.09605ZM10.005 7.16561L10.3125 7.84968L10.005 7.16561ZM8.29203 6.34872L7.83766 6.94542L8.29203 6.34872ZM7.0958 9.2737L7.6925 8.81933L7.0958 9.2737ZM6.4675 10.7931L6.56809 11.5363L6.4675 10.7931ZM5.24375 10.9587L5.34435 11.702L5.24375 10.9587ZM5.24404 13.7076L5.34431 12.9643L5.24404 13.7076ZM7.16545 14.6613L6.48128 14.9685L7.16545 14.6613ZM6.34838 16.3744L5.75168 15.92L6.34838 16.3744ZM8.29223 18.3181L7.83745 17.7217L8.29223 18.3181ZM10.0053 17.5001L9.6979 18.1842L10.0053 17.5001ZM9.27334 17.5699L8.81857 16.9736L9.27334 17.5699ZM10.7928 18.1978L10.0496 18.2983L10.7928 18.1978ZM13.7073 19.4222L12.964 19.322L13.7073 19.4222ZM13.8723 18.1981L14.6156 18.2983L13.8723 18.1981ZM15.3916 17.5697L14.937 18.1662L15.3916 17.5697ZM14.6599 17.5L14.3524 16.8159L14.6599 17.5ZM16.3738 18.3183L15.9192 18.9148L16.3738 18.3183ZM18.3173 16.3743L17.7208 16.8289L18.3173 16.3743ZM18.2586 17.2497L18.7891 17.7798L18.2586 17.2497ZM17.4997 14.6611L16.8155 14.3538L17.4997 14.6611ZM18.1979 13.8726L18.2981 14.6159L18.1979 13.8726ZM17.6318 14.3407L16.93 14.0761L17.6318 14.3407ZM19.4219 13.7075L19.3217 12.9643L19.4219 13.7075ZM17.4998 10.0054L18.1839 9.69798L17.4998 10.0054ZM18.3173 8.29231L17.7207 7.83774L18.3173 8.29231ZM15.3915 7.09627L14.9373 6.49945L15.3915 7.09627ZM14.3404 7.03358L14.0755 7.73522L14.3404 7.03358ZM13.8723 6.46741L14.6156 6.36714L13.8723 6.46741ZM14.3404 7.03358L14.0755 7.73522C14.1693 7.77068 14.2618 7.80888 14.3527 7.84974L14.6602 7.1657L14.9678 6.48167C14.8488 6.42816 14.7279 6.37823 14.6054 6.33194L14.3404 7.03358ZM15.3915 7.09627L15.8457 7.69309L16.8282 6.94533L16.374 6.34851L15.9198 5.75169L14.9373 6.49945L15.3915 7.09627ZM17.2492 6.40761L16.7188 6.93794L17.7281 7.94717L18.2584 7.41684L18.7887 6.88651L17.7795 5.87728L17.2492 6.40761ZM18.3173 8.29231L17.7207 7.83774L16.9729 8.81905L17.5695 9.27362L18.166 9.7282L18.9138 8.74688L18.3173 8.29231ZM17.4998 10.0054L16.8157 10.3129C16.8565 10.4037 16.8947 10.4961 16.9301 10.59L17.6318 10.3252L18.3335 10.0603C18.2872 9.93783 18.2374 9.817 18.1839 9.69798L17.4998 10.0054ZM18.1975 10.7931L18.097 11.5363L19.3217 11.702L19.4222 10.9588L19.5228 10.2155L18.2981 10.0498L18.1975 10.7931ZM19.9995 11.6194H19.2495V13.0468H19.9995H20.7495V11.6194H19.9995ZM19.4219 13.7075L19.3217 12.9643L18.0976 13.1293L18.1979 13.8726L18.2981 14.6159L19.5222 14.4508L19.4219 13.7075ZM17.6318 14.3407L16.93 14.0761C16.8946 14.1702 16.8564 14.2628 16.8155 14.3538L17.4997 14.6611L18.1839 14.9683C18.2374 14.8491 18.2874 14.728 18.3336 14.6053L17.6318 14.3407ZM17.5695 15.3929L16.9729 15.8474L17.7208 16.8289L18.3173 16.3743L18.9139 15.9197L18.166 14.9383L17.5695 15.3929ZM18.2586 17.2497L17.7281 16.7195L16.719 17.7292L17.2495 18.2594L17.7799 18.7896L18.7891 17.7798L18.2586 17.2497ZM16.3738 18.3183L16.8284 17.7218L15.8462 16.9732L15.3916 17.5697L14.937 18.1662L15.9192 18.9148L16.3738 18.3183ZM14.6599 17.5L14.3524 16.8159C14.2616 16.8567 14.1693 16.8949 14.0755 16.9303L14.3404 17.632L14.6053 18.3336C14.7278 18.2874 14.8485 18.2375 14.9674 18.1841L14.6599 17.5ZM13.8723 18.1981L13.1291 18.0979L12.964 19.322L13.7073 19.4222L14.4506 19.5224L14.6156 18.2983L13.8723 18.1981ZM13.0466 19.9998V19.2498H11.6192V19.9998V20.7498H13.0466V19.9998ZM10.9585 19.4225L11.7017 19.3219L11.5361 18.0972L10.7928 18.1978L10.0496 18.2983L10.2153 19.523L10.9585 19.4225ZM10.3249 17.632L10.5898 16.9304C10.4959 16.8949 10.4035 16.8568 10.3127 16.816L10.0053 17.5001L9.6979 18.1842C9.81685 18.2376 9.93763 18.2875 10.0601 18.3337L10.3249 17.632ZM9.27334 17.5699L8.81857 16.9736L7.83745 17.7217L8.29223 18.3181L8.74701 18.9145L9.72812 18.1663L9.27334 17.5699ZM7.41646 18.2593L7.94693 17.7291L6.93773 16.7193L6.40725 17.2495L5.87678 17.7797L6.88598 18.7894L7.41646 18.2593ZM6.34838 16.3744L6.94509 16.8287L7.69252 15.8471L7.09582 15.3928L6.49912 14.9384L5.75168 15.92L6.34838 16.3744ZM7.16545 14.6613L7.84961 14.354C7.80871 14.2629 7.77049 14.1703 7.73499 14.0761L7.03321 14.3407L6.33143 14.6053C6.37773 14.7281 6.4277 14.8492 6.48128 14.9685L7.16545 14.6613ZM6.46716 13.8726L6.56744 13.1293L5.34431 12.9643L5.24404 13.7076L5.14376 14.4508L6.36689 14.6158L6.46716 13.8726ZM4.6665 13.0469H5.4165V11.6194H4.6665H3.9165V13.0469H4.6665ZM5.24375 10.9587L5.34435 11.702L6.56809 11.5363L6.4675 10.7931L6.36691 10.0499L5.14316 10.2155L5.24375 10.9587ZM7.03325 10.3252L7.73492 10.59C7.77039 10.4961 7.80858 10.4036 7.84943 10.3127L7.16536 10.0052L6.48128 9.69776C6.42777 9.81683 6.37785 9.93773 6.33158 10.0603L7.03325 10.3252ZM7.0958 9.2737L7.6925 8.81933L6.94518 7.83791L6.34848 8.29227L5.75178 8.74664L6.4991 9.72807L7.0958 9.2737ZM6.40748 7.41699L6.93781 7.94732L7.94707 6.93805L7.41674 6.40772L6.88641 5.87739L5.87715 6.88666L6.40748 7.41699ZM8.29203 6.34872L7.83766 6.94542L8.8191 7.69275L9.27347 7.09605L9.72783 6.49935L8.74639 5.75202L8.29203 6.34872ZM10.005 7.16561L10.3125 7.84968C10.4034 7.80883 10.4958 7.77063 10.5898 7.73517L10.3249 7.0335L10.06 6.33183C9.93746 6.3781 9.81656 6.42802 9.6975 6.48154L10.005 7.16561ZM10.7929 6.46773L11.5361 6.56833L11.7017 5.34459L10.9585 5.244L10.2153 5.1434L10.0496 6.36714L10.7929 6.46773ZM11.6191 4.66675V5.41675H13.0466V4.66675V3.91675H11.6191V4.66675ZM13.7073 5.24428L12.964 5.34456L13.1291 6.56769L13.8723 6.46741L14.6156 6.36714L14.4506 5.14401L13.7073 5.24428ZM13.0466 4.66675V5.41675C13.0049 5.41675 12.9696 5.3859 12.964 5.34456L13.7073 5.24428L14.4506 5.14401C14.3558 4.44117 13.7558 3.91675 13.0466 3.91675V4.66675ZM10.9585 5.244L11.7017 5.34459C11.6961 5.38592 11.6608 5.41675 11.6191 5.41675V4.66675V3.91675C10.9102 3.91675 10.3104 4.44084 10.2153 5.1434L10.9585 5.244ZM10.3249 7.0335L10.5898 7.73517C11.0633 7.55643 11.4597 7.13271 11.5361 6.56833L10.7929 6.46773L10.0496 6.36714C10.0508 6.35822 10.0534 6.35004 10.0564 6.34332C10.0594 6.3368 10.0623 6.33272 10.064 6.33069C10.0669 6.32726 10.0661 6.32952 10.06 6.33183L10.3249 7.0335ZM9.27347 7.09605L8.8191 7.69275C9.2725 8.038 9.85209 8.05662 10.3125 7.84968L10.005 7.16561L9.6975 6.48154C9.69094 6.48449 9.68822 6.4835 9.69229 6.48386C9.69476 6.48407 9.69962 6.48482 9.70627 6.48732C9.71311 6.48989 9.72066 6.49389 9.72783 6.49935L9.27347 7.09605ZM7.41674 6.40772L7.94707 6.93805C7.91759 6.96754 7.87084 6.97069 7.83766 6.94542L8.29203 6.34872L8.74639 5.75202C8.18237 5.32254 7.3877 5.3761 6.88641 5.87739L7.41674 6.40772ZM6.34848 8.29227L6.94518 7.83791C6.97044 7.87109 6.96729 7.91783 6.93781 7.94732L6.40748 7.41699L5.87715 6.88666C5.37585 7.38795 5.32229 8.18261 5.75178 8.74664L6.34848 8.29227ZM7.16536 10.0052L7.84943 10.3127C8.05636 9.85234 8.03776 9.27275 7.6925 8.81933L7.0958 9.2737L6.4991 9.72807C6.49364 9.7209 6.48964 9.71335 6.48707 9.7065C6.48457 9.69986 6.48382 9.69499 6.4836 9.69253C6.48325 9.68847 6.48424 9.69119 6.48128 9.69776L7.16536 10.0052ZM6.4675 10.7931L6.56809 11.5363C7.13246 11.4599 7.55619 11.0635 7.73492 10.59L7.03325 10.3252L6.33158 10.0603C6.32927 10.0664 6.32702 10.0672 6.33045 10.0643C6.33249 10.0626 6.33657 10.0596 6.34309 10.0566C6.34981 10.0536 6.35799 10.0511 6.36691 10.0499L6.4675 10.7931ZM4.6665 11.6194H5.4165C5.4165 11.6611 5.38568 11.6964 5.34435 11.702L5.24375 10.9587L5.14316 10.2155C4.4406 10.3106 3.9165 10.9104 3.9165 11.6194H4.6665ZM5.24404 13.7076L5.34431 12.9643C5.38566 12.9699 5.4165 13.0052 5.4165 13.0469H4.6665H3.9165C3.9165 13.7561 4.44093 14.356 5.14376 14.4508L5.24404 13.7076ZM7.03321 14.3407L7.73499 14.0761C7.5563 13.6022 7.13217 13.2055 6.56744 13.1293L6.46716 13.8726L6.36689 14.6158C6.35797 14.6146 6.34978 14.6121 6.34305 14.6091C6.33652 14.6061 6.33243 14.6031 6.33038 14.6014C6.32692 14.5985 6.32915 14.5992 6.33143 14.6053L7.03321 14.3407ZM7.09582 15.3928L7.69252 15.8471C8.03777 15.3937 8.05634 14.8142 7.84961 14.354L7.16545 14.6613L6.48128 14.9685C6.48426 14.9752 6.48328 14.9779 6.48363 14.9739C6.48384 14.9715 6.48459 14.9666 6.48709 14.96C6.48966 14.9531 6.49366 14.9456 6.49912 14.9384L7.09582 15.3928ZM6.40725 17.2495L6.93773 16.7193C6.9672 16.7488 6.97034 16.7956 6.94509 16.8287L6.34838 16.3744L5.75168 15.92C5.32228 16.4839 5.37573 17.2784 5.87678 17.7797L6.40725 17.2495ZM8.29223 18.3181L7.83745 17.7217C7.87064 17.6964 7.91743 17.6995 7.94693 17.7291L7.41646 18.2593L6.88598 18.7894C7.38751 19.2912 8.18287 19.3447 8.74701 18.9145L8.29223 18.3181ZM10.0053 17.5001L10.3127 16.816C9.85211 16.609 9.27208 16.6277 8.81857 16.9736L9.27334 17.5699L9.72812 18.1663C9.72095 18.1718 9.7134 18.1758 9.70655 18.1784C9.6999 18.1809 9.69504 18.1816 9.69259 18.1819C9.68854 18.1822 9.69129 18.1812 9.6979 18.1842L10.0053 17.5001ZM10.7928 18.1978L11.5361 18.0972C11.4597 17.5329 11.0633 17.1091 10.5898 16.9304L10.3249 17.632L10.0601 18.3337C10.0662 18.336 10.0669 18.3383 10.064 18.3348C10.0623 18.3328 10.0593 18.3287 10.0564 18.3222C10.0533 18.3154 10.0508 18.3073 10.0496 18.2983L10.7928 18.1978ZM11.6192 19.9998V19.2498C11.6609 19.2498 11.6962 19.2806 11.7017 19.3219L10.9585 19.4225L10.2153 19.523C10.3103 20.2256 10.9102 20.7498 11.6192 20.7498V19.9998ZM13.7073 19.4222L12.964 19.322C12.9696 19.2806 13.0049 19.2498 13.0466 19.2498V19.9998V20.7498C13.7558 20.7498 14.3558 20.2253 14.4506 19.5224L13.7073 19.4222ZM14.3404 17.632L14.0755 16.9303C13.6019 17.1091 13.2052 17.5331 13.1291 18.0979L13.8723 18.1981L14.6156 18.2983C14.6144 18.3073 14.6119 18.3155 14.6089 18.3222C14.6059 18.3287 14.6029 18.3328 14.6012 18.3348C14.5984 18.3382 14.5992 18.3359 14.6053 18.3336L14.3404 17.632ZM15.3916 17.5697L15.8462 16.9732C15.3928 16.6277 14.813 16.6089 14.3524 16.8159L14.6599 17.5L14.9674 18.1841C14.9739 18.1811 14.9766 18.1821 14.9726 18.1818C14.9701 18.1815 14.9652 18.1808 14.9586 18.1783C14.9517 18.1757 14.9441 18.1717 14.937 18.1662L15.3916 17.5697ZM17.2495 18.2594L16.719 17.7292C16.7485 17.6997 16.7952 17.6965 16.8284 17.7218L16.3738 18.3183L15.9192 18.9148C16.4833 19.3448 17.2785 19.2912 17.7799 18.7896L17.2495 18.2594ZM18.3173 16.3743L17.7208 16.8289C17.6955 16.7957 17.6987 16.749 17.7281 16.7195L18.2586 17.2497L18.7891 17.7798C19.2903 17.2784 19.3436 16.4837 18.9139 15.9197L18.3173 16.3743ZM17.4997 14.6611L16.8155 14.3538C16.6088 14.8142 16.6274 15.394 16.9729 15.8474L17.5695 15.3929L18.166 14.9383C18.1715 14.9455 18.1755 14.953 18.178 14.9598C18.1805 14.9665 18.1813 14.9713 18.1815 14.9738C18.1819 14.9778 18.1809 14.975 18.1839 14.9683L17.4997 14.6611ZM18.1979 13.8726L18.0976 13.1293C17.5329 13.2055 17.1087 13.6021 16.93 14.0761L17.6318 14.3407L18.3336 14.6053C18.3359 14.5992 18.3381 14.5985 18.3346 14.6014C18.3326 14.6032 18.3285 14.6061 18.322 14.6091C18.3152 14.6122 18.307 14.6147 18.2981 14.6159L18.1979 13.8726ZM19.9995 13.0468H19.2495C19.2495 13.0051 19.2804 12.9698 19.3217 12.9643L19.4219 13.7075L19.5222 14.4508C20.225 14.356 20.7495 13.7561 20.7495 13.0468H19.9995ZM19.4222 10.9588L19.3217 11.702C19.2803 11.6964 19.2495 11.6611 19.2495 11.6194H19.9995H20.7495C20.7495 10.9104 20.2254 10.3106 19.5228 10.2155L19.4222 10.9588ZM17.6318 10.3252L16.9301 10.59C17.1088 11.0636 17.5326 11.46 18.097 11.5363L18.1975 10.7931L18.2981 10.0498C18.307 10.0511 18.3152 10.0536 18.3219 10.0566C18.3284 10.0596 18.3325 10.0625 18.3346 10.0643C18.338 10.0672 18.3358 10.0664 18.3335 10.0603L17.6318 10.3252ZM17.5695 9.27362L16.9729 8.81905C16.6274 9.27254 16.6087 9.85237 16.8157 10.3129L17.4998 10.0054L18.1839 9.69798C18.1809 9.69138 18.1819 9.68862 18.1815 9.69267C18.1813 9.69512 18.1806 9.69998 18.1781 9.70663C18.1755 9.71347 18.1715 9.72103 18.166 9.7282L17.5695 9.27362ZM18.2584 7.41684L17.7281 7.94717C17.6986 7.91768 17.6954 7.87092 17.7207 7.83774L18.3173 8.29231L18.9138 8.74688C19.3436 8.18286 19.2901 7.38794 18.7887 6.88651L18.2584 7.41684ZM16.374 6.34851L16.8282 6.94533C16.795 6.97058 16.7483 6.96742 16.7188 6.93794L17.2492 6.40761L17.7795 5.87728C17.2783 5.37609 16.4838 5.32244 15.9198 5.75169L16.374 6.34851ZM14.6602 7.1657L14.3527 7.84974C14.813 8.05671 15.3924 8.03807 15.8457 7.69309L15.3915 7.09627L14.9373 6.49945C14.9444 6.49399 14.952 6.49 14.9588 6.48742C14.9655 6.48492 14.9704 6.48417 14.9728 6.48395C14.977 6.4836 14.9743 6.48459 14.9678 6.48167L14.6602 7.1657ZM14.3404 7.03358L14.6054 6.33194C14.5992 6.32961 14.5984 6.32731 14.6012 6.3307C14.6029 6.33272 14.6059 6.33679 14.6088 6.34332C14.6119 6.35003 14.6144 6.35822 14.6156 6.36714L13.8723 6.46741L13.1291 6.56769C13.2052 7.13244 13.6019 7.55639 14.0755 7.73522L14.3404 7.03358Z" fill="currentColor"/>
</svg>
