<svg width="36" height="36" viewBox="0 0 36 36" fill="none" xmlns="http://www.w3.org/2000/svg">
<path d="M16.7596 10.4009C16.7596 9.07493 17.8126 8 19.1115 8C20.4105 8 21.4635 9.07493 21.4635 10.4009C21.4635 11.7269 20.4105 12.8018 19.1115 12.8018H7" stroke="#1A1C20" stroke-width="1.8"/>
<path d="M16.7596 25.5991C16.7596 26.9251 17.8126 28 19.1115 28C20.4105 28 21.4635 26.9251 21.4635 25.5991C21.4635 24.2731 20.4105 23.1982 19.1115 23.1982H7" stroke="#1A1C20" stroke-width="1.8"/>
<path d="M23.9824 15.0869C23.9824 13.3821 25.2987 12 26.9223 12C28.546 12 29.8622 13.3821 29.8622 15.0869C29.8622 16.7917 28.546 18.1738 26.9223 18.1738L7 18.1738" stroke="#1A1C20" stroke-width="1.8"/>
</svg>
