<svg width="24" height="24" viewBox="0 0 24 24" fill="none" xmlns="http://www.w3.org/2000/svg">
<path d="M11.1734 6.93387C11.1734 6.04987 11.8754 5.33325 12.7414 5.33325C13.6073 5.33325 14.3093 6.04987 14.3093 6.93387C14.3093 7.81786 13.6073 8.53448 12.7414 8.53448H4.66699" stroke="currentColor" stroke-width="1.5"/>
<path d="M11.1734 17.0659C11.1734 17.9499 11.8754 18.6665 12.7414 18.6665C13.6073 18.6665 14.3093 17.9499 14.3093 17.0659C14.3093 16.1819 13.6073 15.4653 12.7414 15.4653H4.66699" stroke="currentColor" stroke-width="1.5"/>
<path d="M15.9886 10.0579C15.9886 8.92137 16.8661 8 17.9485 8C19.031 8 19.9085 8.92137 19.9085 10.0579C19.9085 11.1945 19.031 12.1159 17.9485 12.1159L4.66699 12.1159" stroke="currentColor" stroke-width="1.5"/>
</svg>
