<svg width="36" height="36" viewBox="0 0 36 36" fill="none" xmlns="http://www.w3.org/2000/svg">
<path d="M25.4116 21.3036L22.6741 21.3036C21.9323 21.3036 21.2446 21.6917 20.8612 22.3268L17.5887 27.7475C16.9036 28.8823 15.3562 29.1159 14.3667 28.2338L14.124 28.0175C13.5318 27.4896 13.2843 26.675 13.4828 25.9069L14.6722 21.3036L9.37042 21.3036C7.90246 21.3036 6.87979 19.8463 7.37898 18.4658L10.3853 10.152C10.6886 9.31324 11.4849 8.75444 12.3767 8.75444L25.4117 8.75444C26.5812 8.75444 27.5293 9.70254 27.5293 10.8721L27.5293 19.1859C27.5293 20.3555 26.5812 21.3036 25.4116 21.3036Z" stroke="#1A1C20" stroke-width="1.8" stroke-linejoin="round"/>
<path d="M22.2354 21.1766L22.2354 8.47076" stroke="#1A1C20" stroke-width="1.8" stroke-linejoin="round"/>
</svg>
