<svg width="17" height="17" viewBox="0 0 17 17" fill="none" xmlns="http://www.w3.org/2000/svg">
<path d="M12 10.06L10.7073 10.06C10.357 10.06 10.0322 10.2433 9.85116 10.5432L8.30583 13.103C7.98233 13.6389 7.2516 13.7492 6.78434 13.3326L6.66971 13.2305C6.39006 12.9812 6.27319 12.5965 6.36691 12.2338L6.92857 10.06L4.42497 10.06C3.73177 10.06 3.24884 9.37185 3.48457 8.71995L4.90422 4.79398C5.04744 4.39791 5.42346 4.13403 5.84462 4.13403L12 4.13403C12.5523 4.13403 13 4.58175 13 5.13403L13 9.06001C13 9.61229 12.5523 10.06 12 10.06Z" stroke="currentColor" stroke-linejoin="round"/>
<path d="M10.5 10.0001L10.5 4.00006" stroke="currentColor" stroke-linejoin="round"/>
</svg>
