<svg width="24" height="24" viewBox="0 0 24 24" fill="none" xmlns="http://www.w3.org/2000/svg">
<path d="M16.9413 14.2023L15.1162 14.2023C14.6217 14.2023 14.1632 14.4611 13.9076 14.8844L11.726 18.4982C11.2693 19.2548 10.2376 19.4105 9.57797 18.8225L9.41615 18.6782C9.02135 18.3263 8.85636 17.7833 8.98866 17.2712L9.7816 14.2023L6.24711 14.2023C5.26847 14.2023 4.58669 13.2308 4.91948 12.3104L6.92369 6.7679C7.12588 6.20874 7.65673 5.83621 8.25132 5.83621L16.9413 5.83621C17.721 5.83621 18.353 6.46828 18.353 7.24797L18.353 12.7905C18.353 13.5702 17.721 14.2023 16.9413 14.2023Z" stroke="#555D6D" stroke-width="1.5" stroke-linejoin="round"/>
<path d="M14.8237 14.1178L14.8237 5.64717" stroke="#555D6D" stroke-width="1.5" stroke-linejoin="round"/>
</svg>
