<svg width="142" height="162" viewBox="0 0 142 162" fill="none" xmlns="http://www.w3.org/2000/svg">
<path d="M139.96 38.0695C140.902 38.5875 141.487 39.5773 141.487 40.6523V63.5671C141.487 65.1951 140.167 66.5148 138.539 66.5148H120.853C119.225 66.5148 117.906 65.1951 117.906 63.5671V54.5931C117.906 53.5181 117.32 52.5284 116.379 52.0103L72.1639 27.6928C71.2794 27.2064 70.2074 27.2064 69.3229 27.6928L25.1083 52.0103C24.1663 52.5284 23.5811 53.5181 23.5811 54.5931V63.5671C23.5811 65.1951 22.2614 66.5148 20.6335 66.5148H2.94764C1.31971 66.5148 0 65.1951 0 63.5671V40.6523C0 39.5773 0.585197 38.5875 1.5271 38.0695L69.3229 0.781275C70.2074 0.294768 71.2794 0.294771 72.1639 0.781278L139.96 38.0695Z" fill="#262734"/>
<path d="M20.6335 81.2531C22.2614 81.2531 23.5788 82.5707 23.7596 84.1885C24.5485 91.2448 28.2034 103.707 39.5917 115.971C50.9299 128.181 63.5108 134.316 70.0617 136.595C70.6124 136.787 71.2007 136.797 71.7582 136.626C78.4983 134.559 90.5071 129.102 101.627 116.271C113.311 102.789 116.924 90.9315 117.719 84.1879C117.909 82.5712 119.225 81.2531 120.853 81.2531H138.539C140.167 81.2531 141.494 82.5691 141.39 84.1937C140.622 96.1551 135.126 113.624 119.446 131.717C102.105 151.724 82.4992 158.72 73.0549 160.609L71.2602 160.969C70.8642 161.049 70.4562 161.046 70.0613 160.961L68.2736 160.577C59.1309 158.618 39.3544 150.373 22.3088 132.016C6.2417 114.713 0.851185 96.1355 0.0958698 84.1928C-0.00688339 82.5681 1.3197 81.2531 2.94764 81.2531H20.6335Z" fill="#D4182E"/>
<path d="M54.9847 63.4534C63.688 54.7501 77.7988 54.7501 86.5021 63.4534C95.2053 72.1567 95.2053 86.2675 86.5021 94.9707L73.6086 107.864C72.0262 109.447 69.4606 109.447 67.8782 107.864L54.9847 94.9707C46.2815 86.2675 46.2815 72.1567 54.9847 63.4534Z" fill="#D4182E"/>
</svg>
